<?xml version="1.0" standalone="no"?>
<!DOCTYPE svg PUBLIC "-//W3C//DTD SVG 20010904//EN"
 "http://www.w3.org/TR/2001/REC-SVG-20010904/DTD/svg10.dtd">
<svg version="1.0" xmlns="http://www.w3.org/2000/svg"
 width="260.000000pt" height="260.000000pt" viewBox="0 0 260.000000 260.000000"
 preserveAspectRatio="xMidYMid meet">
<metadata>
Created by potrace 1.11, written by Peter Selinger 2001-2013
</metadata>
<g transform="translate(0.000000,260.000000) scale(0.100000,-0.100000)"
fill="#000000" stroke="none">
<path d="M355 2492 l-70 -3 1 -1197 c1 -658 2 -1200 3 -1203 0 -3 138 -6 306
-6 l305 0 0 936 0 936 388 -1 c213 -1 390 -2 393 -3 4 0 7 -405 7 -898 1 -494
1 -914 1 -934 l1 -36 306 1 307 1 0 1198 c0 659 -3 1200 -6 1203 -6 6 -1811
12 -1942 6z"/>
</g>
</svg>
